Flexion_states
version=1
nRows=5
nColumns=41
inDegrees=yes

# SIMM Motion File Header:
name Flexion_states
datacolumns 41
datarows 5
otherdata 1
range 0.00000000 1.13075301
endheader
time	/jointset/ground_thorax/thorax_tilt/value	/jointset/ground_thorax/thorax_tilt/speed	/jointset/ground_thorax/thorax_list/value	/jointset/ground_thorax/thorax_list/speed	/jointset/ground_thorax/thorax_rotation/value	/jointset/ground_thorax/thorax_rotation/speed	/jointset/ground_thorax/thorax_tx/value	/jointset/ground_thorax/thorax_tx/speed	/jointset/ground_thorax/thorax_ty/value	/jointset/ground_thorax/thorax_ty/speed	/jointset/ground_thorax/thorax_tz/value	/jointset/ground_thorax/thorax_tz/speed	/jointset/sternoclavicular/sternoclavicular_r2/value	/jointset/sternoclavicular/sternoclavicular_r2/speed	/jointset/sternoclavicular/sternoclavicular_r3/value	/jointset/sternoclavicular/sternoclavicular_r3/speed	/jointset/unrotscap/unrotscap_r3/value	/jointset/unrotscap/unrotscap_r3/speed	/jointset/unrotscap/unrotscap_r2/value	/jointset/unrotscap/unrotscap_r2/speed	/jointset/acromioclavicular/acromioclavicular_r2/value	/jointset/acromioclavicular/acromioclavicular_r2/speed	/jointset/acromioclavicular/acromioclavicular_r3/value	/jointset/acromioclavicular/acromioclavicular_r3/speed	/jointset/acromioclavicular/acromioclavicular_r1/value	/jointset/acromioclavicular/acromioclavicular_r1/speed	/jointset/unrothum/unrothum_r1/value	/jointset/unrothum/unrothum_r1/speed	/jointset/unrothum/unrothum_r3/value	/jointset/unrothum/unrothum_r3/speed	/jointset/unrothum/unrothum_r2/value	/jointset/unrothum/unrothum_r2/speed	/jointset/shoulder0/elv_angle/value	/jointset/shoulder0/elv_angle/speed	/jointset/shoulder1/shoulder_elv/value	/jointset/shoulder1/shoulder_elv/speed	/jointset/shoulder1/shoulder1_r2/value	/jointset/shoulder1/shoulder1_r2/speed	/jointset/shoulder2/shoulder_rot/value	/jointset/shoulder2/shoulder_rot/speed
      0.00000000	      0.00000000	      0.00000000	      0.00000000	      0.00000000	      0.00000000	      0.00000000	      0.00000000	      0.00000000	      0.00000000	      0.00000000	      0.00000000	      0.00000000	      0.00000000	      0.00000000	     -0.00000000	      0.00000000	      0.00000000	      0.00000000	     -0.00000000	      0.00000000	      0.00000000	      0.00000000	     -0.00000000	      0.00000000	     -0.00000000	      0.00000000	      0.00000000	      0.00000000	      0.00000000	      0.00000000	     -0.00000000	      0.00000000	     90.00000000	      0.00000000	     -0.00000000	      0.00000000	    -90.00000000	      0.00000000	      0.00000000	      0.00000000
      0.01000000	      0.00000000	      0.00000000	      0.00000000	      0.00000000	      0.00000000	      0.00000000	      0.00000000	      0.00000000	      0.00000000	      0.00000000	     -0.00000000	     -0.00000000	     -0.00065555	     -0.13108835	      0.00027766	      0.05552279	     -0.00027766	     -0.05552279	      0.00065555	      0.13108835	     -0.00013273	     -0.02654252	      0.00107269	      0.21450445	      0.00048218	      0.09642044	     -0.00048218	     -0.09642044	     -0.00107269	     -0.21450445	      0.00013273	      0.02654252	     90.00000000	      0.00000000	      0.00270889	      0.54169253	    -90.00000000	     -0.00000000	     -0.00000000	     -0.00000000
      0.06000000	      0.00000000	      0.00000000	     -0.00000000	     -0.00000000	     -0.00000000	     -0.00000000	      0.00000000	      0.00000000	      0.00000000	     -0.00000000	     -0.00000000	     -0.00000000	     -0.02356236	     -0.78466609	      0.00997990	      0.33234726	     -0.00997990	     -0.33234726	      0.02356236	      0.78466609	     -0.00477086	     -0.15887770	      0.03855592	      1.28397654	      0.01733101	      0.57715160	     -0.01733101	     -0.57715160	     -0.03855592	     -1.28397654	      0.00477086	      0.15887770	     90.00000000	     -0.00000000	      0.09736606	      3.24245257	    -90.00000000	      0.00000000	      0.00000000	      0.00000000
      0.31000000	      0.00000000	     -0.00000000	     -0.00000000	     -0.00000000	     -0.00000000	     -0.00000000	      0.00000000	      0.00000000	     -0.00000000	     -0.00000000	      0.00000000	      0.00000000	     -0.62397942	     -4.00553743	      0.26428802	      1.69655527	     -0.26428802	     -1.69655527	      0.62397942	      4.00553743	     -0.12634217	     -0.81103361	      1.02103932	      6.55440084	      0.45896047	      2.94622436	     -0.45896047	     -2.94622436	     -1.02103932	     -6.55440084	      0.12634217	      0.81103361	     90.00000000	     -0.00000000	      2.57845176	     16.55196430	    -90.00000000	      0.00000000	     -0.00000000	     -0.00000000
      1.13075301	     -0.00000000	     -0.00000000	     -0.00000000	     -0.00000000	     -0.00000000	     -0.00000000	      0.00000000	      0.00000000	     -0.00000000	     -0.00000000	      0.00000000	      0.00000000	     -8.07540925	    -13.99504835	      3.42035953	      5.92763728	     -3.42035953	     -5.92763728	      8.07540925	     13.99504835	     -1.63509352	     -2.83369079	     13.21407430	     22.90058658	      5.93976910	     10.29388767	     -5.93976910	    -10.29388767	    -13.21407430	    -22.90058658	      1.63509352	      2.83369079	     90.00000000	      0.00000000	     33.36977575	     57.83132599	    -90.00000000	     -0.00000000	     -0.00000000	     -0.00000000
